<?xml version="1.0" encoding="UTF-8" standalone="no"?>
<svg xmlns="http://www.w3.org/2000/svg" width="880" height="880" version="1.1">
<line x1="40" y1="40" x2="840" y2="40" stroke="brown" stroke-width="16"/>
<line x1="40" y1="240" x2="840" y2="240" stroke="brown" stroke-width="16"/>
<line x1="40" y1="440" x2="840" y2="440" stroke="brown" stroke-width="16"/>
<line x1="40" y1="640" x2="840" y2="640" stroke="brown" stroke-width="16"/>
<line x1="40" y1="840" x2="840" y2="840" stroke="brown" stroke-width="16"/>
<line x1="40" y1="40" x2="40" y2="840" stroke="brown" stroke-width="16"/>
<line x1="240" y1="40" x2="240" y2="840" stroke="brown" stroke-width="16"/>
<line x1="440" y1="40" x2="440" y2="840" stroke="brown" stroke-width="16"/>
<line x1="640" y1="40" x2="640" y2="840" stroke="brown" stroke-width="16"/>
<line x1="840" y1="40" x2="840" y2="840" stroke="brown" stroke-width="16"/>
<line x1="40" y1="40" x2="840" y2="840" stroke="brown" stroke-width="16"/>
<line x1="40" y1="440" x2="440" y2="40" stroke="brown" stroke-width="16"/>
<line x1="40" y1="840" x2="840" y2="40" stroke="brown" stroke-width="16"/>
<line x1="440" y1="840" x2="840" y2="440" stroke="brown" stroke-width="16"/>
<line x1="440" y1="40" x2="840" y2="440" stroke="brown" stroke-width="16"/>
<line x1="40" y1="440" x2="440" y2="840" stroke="brown" stroke-width="16"/>
</svg>
